<svg width="193" height="42" viewBox="0 0 193 42" fill="none" xmlns="http://www.w3.org/2000/svg">
<path d="M22.1 13.82C22.1 16.88 21.14 18.86 19.1 20.3C21.14 21.74 22.1 23.72 22.1 26.78V31.82C22.1 38.06 18.98 41 12.74 41H1.76C0.8 41 0.2 40.4 0.2 39.44V1.76C0.2 0.74 0.8 0.2 1.76 0.2H12.74C18.98 0.2 22.1 3.14 22.1 9.38V13.82ZM8.6 32.24C8.6 33.08 8.72 33.2 9.56 33.2H11.96C13.04 33.2 13.7 32.42 13.7 31.22V26.24C13.7 25.04 13.04 24.26 11.96 24.26H8.6V32.24ZM8.6 16.4H11.96C13.04 16.4 13.7 15.62 13.7 14.42V10.04C13.7 8.84 13.04 8.06 11.96 8.06H9.56C8.72 8.06 8.6 8.18 8.6 9.02V16.4ZM24.1133 41C23.0333 41 22.4933 40.34 22.6733 39.32L29.2133 1.64C29.3933 0.74 29.9333 0.2 30.8933 0.2H37.0733C38.0333 0.2 38.6333 0.74 38.7533 1.64L44.9333 39.32C45.1133 40.34 44.6333 41 43.5533 41H38.0933C37.1333 41 36.5333 40.58 36.4133 39.56L36.0533 36.14H31.3133L30.8933 39.56C30.7733 40.52 30.2333 41 29.2733 41H24.1133ZM32.3933 27.98H35.1533L33.8933 16.52L32.3933 27.98ZM47.7561 41C46.7961 41 46.1961 40.4 46.1961 39.44V1.76C46.1961 0.74 46.7961 0.2 47.7561 0.2H57.8961C64.1361 0.2 67.2561 3.14 67.2561 9.38V17.42C67.2561 20.84 66.3561 23.24 64.4961 24.74L68.0361 39.26C68.2761 40.34 67.7361 41 66.6561 41H60.9561C60.0561 41 59.5161 40.58 59.2761 39.62L56.1561 26.6H54.5961V39.44C54.5961 40.46 53.9961 41 53.0361 41H47.7561ZM54.5961 18.8H57.1161C58.1961 18.8 58.8561 18.02 58.8561 16.82V10.04C58.8561 8.84 58.1961 8.06 57.1161 8.06H54.5961V18.8ZM75.9102 41C74.8302 41 74.2902 40.34 74.4702 39.32L81.0102 1.64C81.1902 0.74 81.7302 0.2 82.6902 0.2H88.8702C89.8302 0.2 90.4302 0.74 90.5502 1.64L96.7302 39.32C96.9102 40.34 96.4302 41 95.3502 41H89.8902C88.9302 41 88.3302 40.58 88.2102 39.56L87.8502 36.14H83.1102L82.6902 39.56C82.5702 40.52 82.0302 41 81.0702 41H75.9102ZM84.1902 27.98H86.9502L85.6902 16.52L84.1902 27.98ZM122.953 0.2C123.973 0.2 124.513 0.799999 124.513 1.76V39.44C124.513 40.46 123.913 41 122.953 41H117.973C116.953 41 116.413 40.4 116.413 39.44V20.72L112.693 39.62C112.333 41.48 110.233 41.48 109.873 39.62L106.153 20.72V39.44C106.153 40.4 105.553 41 104.593 41H99.553C98.593 41 97.993 40.4 97.993 39.44V1.76C97.993 0.74 98.593 0.2 99.553 0.2H106.153C107.053 0.2 107.713 0.619998 107.893 1.58L111.373 18.2L114.793 1.58C114.973 0.679997 115.633 0.2 116.533 0.2H122.953ZM139.478 0.2C145.718 0.2 148.838 3.14 148.838 9.38V31.82C148.838 38.06 145.718 41 139.478 41H136.298C130.058 41 126.938 38.06 126.938 31.82V9.38C126.938 3.14 130.058 0.2 136.298 0.2H139.478ZM135.338 31.22C135.338 32.42 135.998 33.2 137.078 33.2H138.698C139.778 33.2 140.438 32.42 140.438 31.22V10.04C140.438 8.84 139.778 8.06 138.698 8.06H137.078C135.998 8.06 135.338 8.84 135.338 10.04V31.22ZM152.815 41C151.855 41 151.255 40.4 151.255 39.44V1.76C151.255 0.74 151.855 0.2 152.815 0.2H162.955C169.195 0.2 172.315 3.14 172.315 9.38V17.42C172.315 20.84 171.415 23.24 169.555 24.74L173.095 39.26C173.335 40.34 172.795 41 171.715 41H166.015C165.115 41 164.575 40.58 164.335 39.62L161.215 26.6H159.655V39.44C159.655 40.46 159.055 41 158.095 41H152.815ZM159.655 18.8H162.175C163.255 18.8 163.915 18.02 163.915 16.82V10.04C163.915 8.84 163.255 8.06 162.175 8.06H159.655V18.8ZM176.252 41C175.292 41 174.692 40.4 174.692 39.44V1.76C174.692 0.74 175.292 0.2 176.252 0.2H190.892C191.912 0.2 192.452 0.799999 192.452 1.76V6.8C192.452 7.76 191.852 8.36 190.892 8.36H184.652C183.692 8.36 183.092 8.96 183.092 9.92V14.72C183.092 15.74 183.692 16.28 184.652 16.28H190.772C191.792 16.28 192.332 16.88 192.332 17.84V22.88C192.332 23.84 191.732 24.44 190.772 24.44H184.652C183.632 24.44 183.092 25.04 183.092 26V31.28C183.092 32.24 183.692 32.84 184.652 32.84H190.892C191.852 32.84 192.452 33.44 192.452 34.4V39.44C192.452 40.4 191.852 41 190.892 41H176.252Z" fill="white"/>
</svg>
